# xmcd
#
# Track frame offsets:
# 150
# 10795
# 24780
# 37892
# 51277
# 64962
# 75865
# 86540
# 97280
# 109397
# 122357
# 134497
# 145345
# 155430
# 165375
# 178595
#
# Disc length: 2549 seconds
#
#
# Revision: 8
# Processed by: cddbd v1.5.1PL2 Copyright (c) Steve Scherf et al.
# Submitted via: FreeRIP 2.945 
#
DISCID=c609f310
DTITLE=George Jones and Tammy Wynette - 16 Biggest Hits
DYEAR=1999
DGENRE=Country
TTITLE0=Take Me
TTITLE1=The Ceremony
TTITLE2=Let's Build A World Together
TTITLE3=We're Gonna Hold On
TTITLE4=Golden Ring
TTITLE5=(We're Not) The Jet Set
TTITLE6=Near You
TTITLE7=We Loved It Away
TTITLE8=God's Gonna Get 'Cha (For That)
TTITLE9=Southern California
TTITLE10=Two Story House
TTITLE11=A Pair Of Old Sneakers
TTITLE12=Something To Brag About
TTITLE13=There's Power In Our Love
TTITLE14=Keep The Change
TTITLE15=Roll In My Sweet Baby's Arms
EXTD=Epic Legacy
EXTT0=
EXTT1=
EXTT2=
EXTT3=
EXTT4=
EXTT5=
EXTT6=
EXTT7=
EXTT8=
EXTT9=
EXTT10=
EXTT11=
EXTT12=
EXTT13=
EXTT14=
EXTT15=
PLAYORDER=
